<?xml version="1.0" standalone="no"?>
<!DOCTYPE svg PUBLIC "-//W3C//DTD SVG 20010904//EN"
 "http://www.w3.org/TR/2001/REC-SVG-20010904/DTD/svg10.dtd">
<svg version="1.0" xmlns="http://www.w3.org/2000/svg"
 width="321.000000pt" height="321.000000pt" viewBox="0 0 321.000000 321.000000"
 preserveAspectRatio="xMidYMid meet">
<metadata>
Created by potrace 1.11, written by Peter Selinger 2001-2013
</metadata>
<g transform="translate(0.000000,321.000000) scale(0.100000,-0.100000)"
fill="#000000" stroke="none">
<path d="M0 1605 l0 -1015 1605 0 1605 0 0 1015 0 1015 -1605 0 -1605 0 0
-1015z m970 956 c101 -27 163 -55 236 -107 93 -66 145 -146 184 -285 33 -122
42 -113 -122 -136 -150 -21 -158 -20 -158 23 0 35 -59 141 -98 175 -20 18 -61
44 -92 58 -51 24 -65 26 -190 26 -160 0 -224 -16 -288 -71 -57 -48 -82 -100
-82 -167 0 -68 40 -134 102 -171 24 -13 163 -61 310 -105 423 -128 504 -164
593 -263 129 -143 153 -372 60 -573 -79 -173 -229 -286 -439 -335 -118 -27
-209 -32 -328 -20 -138 14 -206 32 -303 80 -92 45 -183 130 -239 224 -50 83
-116 289 -96 301 11 7 284 54 289 50 2 -2 7 -26 12 -52 24 -132 125 -261 236
-303 126 -47 318 -47 428 0 56 24 130 92 158 145 32 60 31 177 -3 226 -45 68
-109 98 -365 170 -365 104 -481 153 -571 243 -190 191 -188 508 6 710 85 88
182 137 340 171 93 21 321 13 420 -14z m1590 -45 c214 -45 390 -199 481 -419
110 -267 119 -647 23 -937 -79 -237 -208 -388 -395 -460 -134 -52 -226 -60
-666 -60 l-393 0 0 951 0 951 438 -5 c345 -4 453 -8 512 -21z"/>
<path d="M1910 1584 l0 -707 233 6 c242 6 308 15 393 52 131 58 226 210 265
425 21 112 18 394 -4 499 -33 151 -106 276 -207 352 -87 65 -121 72 -417 77
l-263 4 0 -708z"/>
</g>
</svg>
