<?xml version="1.0" encoding="UTF-8"?> <svg xmlns="http://www.w3.org/2000/svg" id="Layer_1" data-name="Layer 1" viewBox="0 0 400 245"><defs><style>.cls-1{fill:#00ab4e;}.cls-2{fill:#fff;}.cls-3{fill:#97999c;}.cls-4{fill:#231f20;}</style></defs><title>NGINX Part of F5 - stacked logo</title><path class="cls-1" d="M132.49036,103.19118a6.73569,6.73569,0,0,0,2.53057,2.51119l51.76848,29.88855.00161-.00162a6.79291,6.79291,0,0,0,6.8807,0l51.7701-29.88855a6.78877,6.78877,0,0,0,3.43873-5.95638V39.96726l-.00161-.00161a6.791,6.791,0,0,0-3.44035-5.958L193.66849,4.1191V4.11748a6.78406,6.78406,0,0,0-6.87585,0V4.1191L135.02416,34.00765a6.788,6.788,0,0,0-3.442,5.958l-.00162.00161V99.74437a6.74924,6.74924,0,0,0,.90816,3.44681"></path><path class="cls-2" d="M173.65547,92.61077a6.6577,6.6577,0,1,1-13.3154,0l.00162.00162.00646-45.70222c0-3.54053,3.12847-6.46863,7.5594-6.46863a11.83943,11.83943,0,0,1,9.07516,4.05764l2.01185,2.40776,27.81368,33.28528V47.096H206.805a6.6577,6.6577,0,1,1,13.3154,0h-.00162l-.00646,45.699c0,3.54054-3.13009,6.46863-7.5594,6.46863a11.83158,11.83158,0,0,1-9.07516-4.05764l-29.82553-35.693V92.61239Z"></path><path class="cls-3" d="M283.2377,210.35346h.85071v-1.89475h.67292a1.92,1.92,0,0,1,.94521.15782,1.18379,1.18379,0,0,1,.44919,1.10217v.38849l.01906.14482a.29325.29325,0,0,1,.013.0607c.00434.02341.00606.03035.01908.04075h.78825l-.02861-.05376a.55283.55283,0,0,1-.03816-.24627c-.01128-.13615-.01128-.25235-.01128-.35988v-.359a1.374,1.374,0,0,0-.26363-.751,1.22471,1.22471,0,0,0-.8394-.47174,2.07193,2.07193,0,0,0,.69981-.2272,1.04957,1.04957,0,0,0,.47-.95388,1.18542,1.18542,0,0,0-.744-1.22357,3.70232,3.70232,0,0,0-1.31895-.17256H283.2377Zm2.4194-2.598a2.20054,2.20054,0,0,1-.80908.10753h-.75961v-1.75428h.72495a2.13972,2.13972,0,0,1,1.02237.18818.7299.7299,0,0,1,.32.70327.7424.7424,0,0,1-.49863.7553m2.47055-2.89634a4.27419,4.27419,0,0,0-3.12439-1.27733,4.39481,4.39481,0,0,0,0,8.78959,4.40263,4.40263,0,0,0,3.12439-7.51226m-.44657.43619a3.5996,3.5996,0,0,1,1.103,2.67347,3.77664,3.77664,0,0,1-6.45518,2.68648,3.72828,3.72828,0,0,1-1.09782-2.68648,3.78964,3.78964,0,0,1,3.77217-3.79558,3.6039,3.6039,0,0,1,2.67782,1.12211"></path><path class="cls-3" d="M242.6324,124.143h.85069v-1.89476h.67292a1.92,1.92,0,0,1,.94521.15782,1.18375,1.18375,0,0,1,.4492,1.10217v.38849l.01906.14482a.29325.29325,0,0,1,.013.0607c.00433.02341.00607.03035.01907.04076h.78827l-.02863-.05377a.55313.55313,0,0,1-.03816-.24627c-.01127-.13615-.01127-.25235-.01127-.35988v-.359a1.374,1.374,0,0,0-.26362-.751,1.22475,1.22475,0,0,0-.83942-.47174,2.07209,2.07209,0,0,0,.69981-.22719,1.04961,1.04961,0,0,0,.47-.95389,1.18543,1.18543,0,0,0-.744-1.22357,3.70248,3.70248,0,0,0-1.319-.17256H242.6324Zm2.41939-2.598a2.20052,2.20052,0,0,1-.80907.10753h-.75963v-1.75428h.725a2.13982,2.13982,0,0,1,1.02239.18818.7299.7299,0,0,1,.32.70327.7424.7424,0,0,1-.49863.7553m2.47056-2.89633a4.27421,4.27421,0,0,0-3.1244-1.27734,4.39481,4.39481,0,0,0,0,8.78959,4.40263,4.40263,0,0,0,3.1244-7.51225m-.44659.43618a3.59954,3.59954,0,0,1,1.103,2.67347,3.77664,3.77664,0,0,1-6.45518,2.68648,3.72832,3.72832,0,0,1-1.09783-2.68648,3.78966,3.78966,0,0,1,3.77217-3.79558,3.60386,3.60386,0,0,1,2.67781,1.12211"></path><path class="cls-3" d="M230.176,232.92607h-2.85921v-3.91924h6.75356v-1.75414h-8.614v7.40666h4.63486c1.65192,0,2.605.76205,2.605,2.13885v1.50325c0,1.54631-1.05867,2.41464-2.9648,2.41464-1.8214,0-2.88075-.86833-2.88075-2.41464v-1.39764h-1.85972v1.35527c0,2.54174,1.90211,4.19029,4.74047,4.19029,2.90158,0,4.80369-1.64855,4.80369-4.19029v-1.41851c0-2.37158-1.71177-3.9145-4.35912-3.9145"></path><polygon class="cls-3" points="223.33 229.007 223.33 227.253 214.208 227.253 214.208 242.174 216.069 242.174 216.069 236.162 222.589 236.162 222.589 234.386 216.069 234.386 216.069 229.007 223.33 229.007"></polygon><path class="cls-3" d="M206.58593,227.589h.93156v-1.71242h-1.14343c-2.43344,0-3.80756,1.50057-3.80756,4.06382v1.54631h-1.249v1.69092h1.249v8.99666H204.363v-8.99666h2.96346V231.4867H204.363v-1.39833c0-1.77969.69882-2.49938,2.22292-2.49938"></path><path class="cls-3" d="M183.11188,240.46184c-1.46088,0-2.18056-.6773-2.18056-2.39244v-4.89178h2.92176V231.4867h-2.92176v-3.133h-1.7965v3.133h-1.43937v1.69092h1.43937v5.294c0,2.56124,1.20461,3.70265,3.59637,3.70265h1.31225v-1.71244Z"></path><path class="cls-3" d="M175.679,231.29569a4.51856,4.51856,0,0,0-3.3018,1.28936l-.35917-1.09835h-1.24765v10.68758h1.79718v-6.73a2.52908,2.52908,0,0,1,2.81549-2.58479,4.42573,4.42573,0,0,1,.91.10627v-1.64853a6.06089,6.06089,0,0,0-.61407-.02153"></path><path class="cls-3" d="M195.24286,231.21094c-2.98565,0-4.55017,1.67-4.55017,4.423v2.37158c0,2.75293,1.56452,4.44385,4.571,4.44385,2.98633,0,4.55017-1.69092,4.55017-4.44385V235.634C199.81385,232.881,198.25,231.21094,195.24286,231.21094Zm2.77448,6.689c0,1.88465-.84747,2.837-2.77448,2.837-1.92767,0-2.75366-.95239-2.75366-2.837v-2.16034c0-1.88464.84748-2.81622,2.77448-2.81622,1.92767,0,2.75366.93158,2.75366,2.81622Z"></path><path class="cls-3" d="M167.10107,231.4867l-.33765,1.0775a4.17945,4.17945,0,0,0-3.34617-1.35326c-2.62582,0-4.16876,1.31089-4.16876,4.50774v2.22361c0,3.17533,1.54294,4.50708,4.16876,4.50708a4.18114,4.18114,0,0,0,3.34617-1.3526l.33765,1.07751h1.24766V231.4867Zm-3.36635,9.25023c-1.79986,0-2.68971-.88917-2.68971-2.92176v-1.99088c0-2.0326.88985-2.90093,2.68971-2.90093a2.52313,2.52313,0,0,1,2.81683,2.56194v2.66818a2.538,2.538,0,0,1-2.81683,2.58345"></path><path class="cls-3" d="M153.1121,227.25269h-5.84153v14.92159H149.131v-5.41912h4.00194c2.90093,0,4.55013-1.50123,4.55013-3.936v-1.63036c0-2.45633-1.6492-3.93606-4.571-3.93606m2.73208,5.56642c0,1.41919-.84748,2.16039-2.62649,2.16039H149.131v-5.97267h4.10823c1.75748,0,2.605.76273,2.605,2.18192Z"></path><polygon class="cls-4" points="274.052 167.344 265.275 167.344 255.608 182.671 246.195 167.344 237.1 167.344 250.647 189.476 236.973 212.371 245.623 212.371 255.226 196.917 264.639 212.371 273.733 212.371 260.06 190.049 274.052 167.344"></polygon><polygon class="cls-4" points="225.763 167.344 225.763 197.999 208.083 167.344 200.769 167.344 200.769 212.371 208.083 212.371 208.083 181.908 225.763 212.371 233.141 212.371 233.141 167.344 225.763 167.344"></polygon><rect class="cls-4" x="186.92956" y="167.34365" width="7.82299" height="45.0277"></rect><path class="cls-4" d="M180.91317,183.3703v-2.54375c0-8.71283-6.42329-14.3734-17.68055-14.3734-11.19336,0-17.61668,5.66057-17.61668,14.3734v18.06193c0,8.71349,6.48721,14.3734,17.68058,14.3734s17.61665-5.65991,17.61665-14.3734v-10.5571H162.97838v7.24992h10.1125v2.86191c0,4.70684-3.56141,7.56875-9.85826,7.56875-6.23228,0-9.79369-2.86191-9.79369-7.56875V181.2718c0-4.70615,3.56141-7.568,9.85759-7.568,6.233,0,9.79436,2.8619,9.79436,7.56805v2.0985Z"></path><polygon class="cls-4" points="132.184 167.344 132.184 197.999 114.504 167.344 107.19 167.344 107.19 212.371 114.504 212.371 114.504 181.908 132.184 212.371 139.562 212.371 139.562 167.344 132.184 167.344"></polygon></svg> 