<?xml version="1.0" standalone="no"?>
<!DOCTYPE svg PUBLIC "-//W3C//DTD SVG 20010904//EN"
 "http://www.w3.org/TR/2001/REC-SVG-20010904/DTD/svg10.dtd">
<svg version="1.0" xmlns="http://www.w3.org/2000/svg"
 width="350.000000pt" height="350.000000pt" viewBox="0 0 350.000000 350.000000"
 preserveAspectRatio="xMidYMid meet">
<metadata>
Created by potrace 1.16, written by Peter Selinger 2001-2019
</metadata>
<g transform="translate(0.000000,350.000000) scale(0.100000,-0.100000)"
fill="#000000" stroke="none">
<path fill="#269539" d="M107 3470 c-27 -17 -60 -50 -77 -77 l-30 -47 0 -1596 0 -1596 30 -47
c17 -27 50 -60 77 -77 l47 -30 1596 0 1596 0 47 30 c27 17 60 50 77 77 l30 47
0 1596 0 1596 -30 47 c-17 27 -50 60 -77 77 l-47 30 -1596 0 -1596 0 -47 -30z
m2318 -770 c75 -121 146 -237 157 -257 11 -21 38 -64 59 -97 21 -32 36 -62 33
-67 -3 -5 -96 -9 -207 -9 l-203 0 -89 145 -90 144 -300 1 -300 0 -135 -242
c-74 -132 -137 -245 -138 -250 -2 -5 63 -127 145 -273 l148 -264 276 -1 276 0
66 118 67 117 -273 5 c-307 6 -317 8 -390 89 -31 35 -37 48 -37 87 0 74 45
135 125 171 37 17 86 18 603 21 396 2 562 0 562 -8 0 -6 -6 -21 -14 -33 -8
-12 -61 -107 -118 -212 -58 -104 -164 -299 -237 -433 l-133 -242 -506 2 -505
3 -52 95 c-29 52 -137 248 -240 435 l-187 340 17 30 c10 17 48 84 85 150 195
351 271 488 314 568 l48 87 517 0 518 0 138 -220z m-1890 -1719 c26 -15 233
-253 302 -346 l22 -30 1 173 c0 170 0 173 25 197 31 32 60 32 90 -1 l25 -27 0
-248 0 -247 -31 -26 c-63 -53 -95 -32 -274 185 l-150 180 -3 -175 -2 -175 -27
-20 c-34 -28 -49 -26 -84 8 l-29 29 0 242 0 242 29 29 c34 34 64 37 106 10z
m1316 0 c22 -18 24 -26 24 -113 l0 -93 -57 -3 -58 -3 0 96 c0 82 3 98 20 115
25 25 41 25 71 1z m212 -2 l27 -20 2 -175 3 -175 150 182 c92 111 161 187 181
197 37 17 75 11 104 -18 19 -19 20 -34 20 -267 -1 -260 -2 -267 -47 -291 -31
-17 -41 -15 -68 13 -25 24 -25 27 -25 195 l0 170 -151 -180 c-82 -99 -164
-187 -180 -196 -36 -18 -79 -12 -104 15 -14 17 -16 50 -16 272 l0 254 26 23
c32 27 45 28 78 1z m731 -79 l102 -100 94 95 c52 52 102 98 112 101 43 13 103
-52 81 -90 -4 -8 -49 -57 -99 -109 l-90 -96 78 -78 c92 -91 122 -134 113 -163
-7 -23 -51 -60 -72 -60 -8 0 -60 45 -117 100 l-102 99 -94 -94 c-52 -53 -103
-98 -113 -101 -23 -7 -66 20 -76 49 -14 37 7 71 100 162 49 49 86 91 82 94
-31 23 -182 190 -187 207 -8 27 37 84 66 84 13 0 60 -39 122 -100z m-1185 -12
c34 -56 61 -105 61 -110 0 -4 -29 -8 -65 -8 l-64 0 -36 55 -35 55 -95 0 -95 0
-26 -52 c-15 -29 -37 -69 -49 -88 l-22 -35 49 -92 50 -93 94 0 94 0 25 40 c14
22 25 42 25 44 0 2 -46 4 -102 4 -93 0 -104 2 -120 22 -24 30 -23 46 7 75 24
25 26 25 215 25 114 0 190 -4 190 -10 0 -5 -13 -31 -28 -57 -16 -27 -52 -94
-81 -151 l-53 -102 -168 0 c-122 0 -170 3 -178 13 -5 6 -42 72 -82 146 l-73
134 24 46 c13 25 48 90 77 144 l53 97 174 0 173 0 61 -102z m267 -182 c3 -13
4 -79 2 -146 -3 -114 -5 -123 -27 -141 -30 -24 -42 -24 -69 1 -21 20 -22 30
-22 165 l0 145 55 0 c49 0 55 -2 61 -24z"/>
</g>
</svg>
